<svg width="12" height="9" viewBox="0 0 12 9" fill="none" xmlns="http://www.w3.org/2000/svg">
<path d="M1.20001 0C0.803444 0 0.480007 0.303223 0.480007 0.675V3.78281C0.791256 3.52969 1.18501 3.3249 1.68001 3.16406V2.25C1.68001 1.65146 2.77032 1.575 3.72 1.575C4.66969 1.575 5.76 1.65146 5.76 2.25V2.7C5.84063 2.69912 5.9175 2.7 6 2.7C6.0825 2.7 6.15937 2.69912 6.24 2.7V2.25C6.24 1.65146 7.33031 1.575 8.28 1.575C9.22968 1.575 10.32 1.65146 10.32 2.25V3.15703C10.8141 3.31699 11.2059 3.52617 11.52 3.78281V0.675C11.52 0.303223 11.1966 0 10.8 0H1.20001ZM6 3.15C1.41751 3.15 -0.0037426 3.94453 7.39736e-06 6.075H12C12.0037 3.93047 10.5825 3.15 6 3.15ZM7.39736e-06 6.525V9H1.68001V8.1C1.68001 7.77656 1.81501 7.65 2.16 7.65H9.83999C10.185 7.65 10.32 7.77656 10.32 8.1V9H12V6.525H7.39736e-06Z" fill="#F9926D"/>
</svg>
