<svg width="13" height="14" viewBox="0 0 13 14" fill="none" xmlns="http://www.w3.org/2000/svg">
<path d="M6.5 0C6.02067 0 5.59454 0.210359 5.29712 0.538462H3.79272C3.40977 0.538462 3.14669 0.923512 3.28914 1.27674L3.79167 2.69231H9.20833L9.71086 1.27674C9.85331 0.923512 9.59023 0.538462 9.20728 0.538462H7.70288C7.40547 0.210359 6.97933 0 6.5 0ZM3.79167 3.76923C3.79167 3.76923 0 7 0 10.7692C0 12.9231 1.625 14 2.70833 14H6.5H10.2917C11.375 14 13 12.9231 13 10.7692C13 7 9.20833 3.76923 9.20833 3.76923H3.79167ZM4.49731 5.92308H8.50586V6.62139H7.00464V6.6887C7.20722 6.81955 7.35447 7.03918 7.39185 7.27449H8.50586V7.98648H7.42147C7.34997 8.68809 6.73438 9.22598 5.94246 9.28951H5.8938L7.5791 11.3077H6.29159L4.49414 9.11704V8.62485H5.37964C5.92781 8.62485 6.32923 8.36717 6.39315 7.98648H4.50155V7.27344H6.38574C6.32562 6.90782 5.97683 6.66557 5.50342 6.66557H4.49731V5.92308Z" fill="#63C453"/>
</svg>
