<svg width="116" height="116" viewBox="0 0 116 116" fill="none" xmlns="http://www.w3.org/2000/svg">
<path d="M74.4559 99.1866C97.2631 90.0318 108.329 64.1174 99.172 41.3051C90.0151 18.4929 64.1032 7.42128 41.296 16.5761C18.4888 25.7309 7.42311 51.6454 16.58 74.4576C25.7368 97.2699 51.6488 108.341 74.4559 99.1866Z" fill="#FFDFD1"/>
<path d="M44.7002 42.5271C44.7002 42.5271 43.6333 36.6367 44.8655 32.5194C45.3915 30.7613 46.7964 29.3563 48.5621 28.8379C48.5921 28.8304 49.2157 24.713 57.6757 24.405C66.1357 24.097 72.8451 27.6958 71.1997 42.5422L69.0885 45.9006L57.6006 34.8034C57.6006 34.8034 47.7582 41.1672 46.8866 44.1951C46.0226 47.223 44.7002 42.5271 44.7002 42.5271Z" fill="#3B2645"/>
<path d="M89.3599 93.9632H26C26 93.9632 26 75.3753 28.8776 73.542C31.0715 72.1521 42.1687 68.3353 47.3829 66.5847C49.0284 66.0287 50.0877 65.6831 50.0877 65.6831H65.2722C65.2722 65.6831 66.046 65.9386 67.3008 66.3593C72.1544 67.9822 84.1907 72.0845 86.4748 73.542C89.3599 75.3753 89.3599 93.9632 89.3599 93.9632Z" fill="#F5A784"/>
<path d="M65.2723 65.6907L58.1422 66.8928V67.0882L57.5487 66.998L56.9626 67.0882V66.8928L50.0879 65.6907L50.4561 62.6929L51.275 56.0962H63.8298L64.5285 60.7695L65.2723 65.6907Z" fill="#F5A784"/>
<path d="M64.5288 60.7695C59.0967 63.2564 53.3715 63.0385 50.4639 62.6929L51.2753 56.0962H63.8301L64.5288 60.7695Z" fill="#E0855C"/>
<path d="M68.5779 45.2999C68.5779 45.2999 69.6223 41.16 72.2294 42.9933C74.8365 44.8265 72.2294 50.8823 68.5629 50.8447C68.5629 50.8447 67.5787 46.7875 68.5779 45.2999Z" fill="#F5A784"/>
<path d="M71.328 44.9241C70.8171 45.0743 70.3362 45.6303 69.9981 46.0285C69.645 46.4417 69.2318 46.9526 69.0965 47.4936C69.0515 47.6589 69.2844 47.734 69.3821 47.6213C69.6525 47.2983 69.8629 46.9301 70.1108 46.592C70.3362 46.7874 70.5691 46.9902 70.8697 47.0578C71.0951 47.1104 71.2303 46.8249 71.1101 46.6596C70.9598 46.4417 70.7119 46.3065 70.479 46.1788C70.8246 45.8482 71.2529 45.5702 71.5233 45.1945C71.6285 45.0443 71.4858 44.879 71.328 44.9241Z" fill="#E0855C"/>
<path d="M46.8343 44.9087C46.8343 44.9087 45.7899 40.7689 43.1828 42.6022C40.5756 44.4354 43.1828 50.4911 46.8493 50.4536C46.8493 50.4536 47.826 46.3964 46.8343 44.9087Z" fill="#F5A784"/>
<path d="M44.0769 44.5329C44.5879 44.6832 45.0687 45.2392 45.4068 45.6374C45.7599 46.0506 46.1732 46.5615 46.3084 47.1025C46.3535 47.2678 46.1206 47.3429 46.0229 47.2302C45.7524 46.9072 45.542 46.539 45.2941 46.2009C45.0687 46.3962 44.8358 46.5991 44.5353 46.6667C44.3099 46.7193 44.1747 46.4338 44.2949 46.2685C44.4451 46.0506 44.693 45.9154 44.926 45.7877C44.5803 45.4571 44.1521 45.1791 43.8816 44.8034C43.784 44.6532 43.9192 44.4879 44.0769 44.5329Z" fill="#E0855C"/>
<path d="M69.1119 40.1305C66.6701 28.4097 57.6767 29.2286 57.6767 29.2286C57.6767 29.2286 48.6907 28.4097 46.2414 40.1305C45.3323 44.4882 45.6103 49.0488 47.2857 53.1736C48.8711 57.073 51.914 61.2654 57.6692 61.2654C63.4244 61.2654 66.4748 57.073 68.0601 53.1736C69.7506 49.0488 70.0211 44.4882 69.1119 40.1305Z" fill="#F5A784"/>
<path d="M58.3223 49.5373C57.7964 49.4847 56.6168 49.8529 56.3388 49.3044C56.1134 48.8461 56.8121 46.0361 56.9098 45.5553C57.2554 43.8197 57.6461 42.6401 57.864 40.5739C57.8715 40.4838 57.7137 40.4387 57.6762 40.5364C56.6018 43.3238 56.3237 46.7198 55.7302 49.6576C55.7001 49.8153 55.8204 49.9806 55.9932 49.9731C56.7595 49.9205 57.5109 50.0482 58.2697 50.0107C58.5402 49.9881 58.5928 49.5674 58.3223 49.5373Z" fill="#E0855C"/>
<path d="M53.9951 52.8955H61.2229C61.2229 52.8955 59.8705 55.4576 57.609 55.4576C55.3475 55.4576 53.9951 52.8955 53.9951 52.8955Z" fill="white"/>
<path d="M52.6949 44.2479C52.6949 44.2479 51.7031 44.616 51.8534 42.8654C51.9886 41.2951 52.6949 41.5055 52.6949 41.5055C52.6949 41.5055 53.3786 41.498 53.2809 42.8729C53.1757 44.2554 52.6949 44.2479 52.6949 44.2479Z" fill="#3B2645"/>
<path d="M62.1246 44.2479C62.1246 44.2479 61.1328 44.616 61.2831 42.8654C61.4183 41.2951 62.1246 41.5055 62.1246 41.5055C62.1246 41.5055 62.8083 41.498 62.7106 42.8729C62.6054 44.2554 62.1246 44.2479 62.1246 44.2479Z" fill="#3B2645"/>
<path d="M54.0245 39.0932C53.1755 38.6574 51.5902 38.5447 50.9666 39.4313C50.8539 39.5891 51.0041 39.837 51.1919 39.822C51.6127 39.7994 51.9884 39.5966 52.4091 39.559C52.8674 39.5214 53.3032 39.6266 53.739 39.7619C54.1297 39.8896 54.4002 39.281 54.0245 39.0932Z" fill="#3B2645"/>
<path d="M63.4542 39.0932C62.6052 38.6574 61.0198 38.5447 60.3962 39.4313C60.2835 39.5891 60.4338 39.837 60.6216 39.822C61.0424 39.7994 61.418 39.5966 61.8388 39.559C62.2971 39.5214 62.7329 39.6266 63.1687 39.7619C63.5669 39.8896 63.8298 39.281 63.4542 39.0932Z" fill="#3B2645"/>
<path d="M50.9297 31.5426C50.9297 31.5426 47.0904 36.554 45.8357 42.8878L44.7012 40.8967C44.7012 40.9042 46.5645 29.9273 50.9297 31.5426Z" fill="#3B2645"/>
<path d="M50.3134 26.4561C50.3134 26.4561 53.8822 23.0075 66.4445 24.39C66.4445 24.39 69.0817 24.8483 71.5686 23C71.5686 23 73.9353 30.0325 67.4813 32.1137C61.0199 34.1873 54.2654 33.8567 50.937 31.5426C47.6011 29.2285 50.3134 26.4561 50.3134 26.4561Z" fill="#3B2645"/>
<path d="M54.9642 45.6374H48.3675C47.804 45.6374 47.3457 45.1791 47.3457 44.6156V41.1595C47.3457 40.596 47.804 40.1377 48.3675 40.1377H54.9642C55.5277 40.1377 55.986 40.596 55.986 41.1595V44.6156C55.986 45.1791 55.5277 45.6374 54.9642 45.6374ZM48.3675 40.7012C48.1121 40.7012 47.9092 40.904 47.9092 41.1595V44.6156C47.9092 44.8711 48.1121 45.0739 48.3675 45.0739H54.9642C55.2197 45.0739 55.4225 44.8711 55.4225 44.6156V41.1595C55.4225 40.904 55.2197 40.7012 54.9642 40.7012H48.3675Z" fill="#DADEEA"/>
<path d="M66.6175 45.6374H60.0208C59.4573 45.6374 58.999 45.1791 58.999 44.6156V41.1595C58.999 40.596 59.4573 40.1377 60.0208 40.1377H66.6175C67.181 40.1377 67.6393 40.596 67.6393 41.1595V44.6156C67.6393 45.1791 67.181 45.6374 66.6175 45.6374ZM60.0208 40.7012C59.7654 40.7012 59.5625 40.904 59.5625 41.1595V44.6156C59.5625 44.8711 59.7654 45.0739 60.0208 45.0739H66.6175C66.873 45.0739 67.0758 44.8711 67.0758 44.6156V41.1595C67.0758 40.904 66.873 40.7012 66.6175 40.7012H60.0208Z" fill="#DADEEA"/>
<path d="M59.2769 42.6099H55.415V43.1734H59.2769V42.6099Z" fill="#DADEEA"/>
<path d="M71.5606 75.0601V93.9636H43.7012L45.7373 75.0601C45.7373 75.0601 51.2371 78.5463 57.6835 78.5463C64.1224 78.5463 71.5606 75.0601 71.5606 75.0601Z" fill="#B8C3E3"/>
<path d="M49.3665 93.963H26C26 93.963 26 75.3751 28.8776 73.5418C31.0715 72.1519 42.1687 68.3351 47.3829 66.5845C47.7736 70.1308 49.1786 83.4895 49.3665 93.963Z" fill="#3B2645"/>
<path d="M89.3601 93.9636H65.2949C65.4903 83.2571 66.9478 69.5378 67.301 66.3672C72.1546 67.9901 84.1909 72.0924 86.475 73.5499C89.3601 75.3757 89.3601 93.9636 89.3601 93.9636Z" fill="#3B2645"/>
</svg>
