<svg width="105" height="118" viewBox="0 0 105 118" fill="none" xmlns="http://www.w3.org/2000/svg">
<path d="M30.8548 32.2185C30.8548 32.2185 29.0946 22.4998 31.1276 15.7065C31.9953 12.8058 34.3134 10.4877 37.2266 9.6323C37.2762 9.6199 38.3051 2.82667 52.2634 2.31841C66.2218 1.81016 77.2918 7.74804 74.5769 32.2433L71.0936 37.7845L52.1394 19.475C52.1394 19.475 35.9002 29.9748 34.4622 34.9705C33.0366 39.9663 30.8548 32.2185 30.8548 32.2185Z" fill="#3B2645"/>
<path d="M104.539 117.084H0C0 117.084 2.12798e-05 86.4152 4.74784 83.3904C8.36759 81.0971 26.6771 74.7997 35.2802 71.9114C37.995 70.994 39.7428 70.4238 39.7428 70.4238H64.796C64.796 70.4238 66.0728 70.8453 68.143 71.5395C76.1511 74.2171 96.0102 80.9855 99.7787 83.3904C104.539 86.4152 104.539 117.084 104.539 117.084Z" fill="#F5A784"/>
<path d="M64.7973 70.4366L53.0331 72.4201V72.7424L52.0538 72.5936L51.0869 72.7424V72.4201L39.7441 70.4366L40.3516 65.4905L41.7028 54.6064H62.4172L63.5701 62.317L64.7973 70.4366Z" fill="#F5A784"/>
<path d="M63.5694 62.317C54.6068 66.4202 45.1607 66.0607 40.3633 65.4905L41.7021 54.6064H62.4165L63.5694 62.317Z" fill="#E0855C"/>
<path d="M70.251 36.7943C70.251 36.7943 71.9741 29.9639 76.2756 32.9886C80.5772 36.0133 76.2756 46.0048 70.2262 45.9428C70.2262 45.9428 68.6023 39.2488 70.251 36.7943Z" fill="#F5A784"/>
<path d="M74.7878 36.1741C73.9449 36.422 73.1515 37.3393 72.5936 37.9963C72.011 38.6782 71.3293 39.5211 71.1061 40.4136C71.0317 40.6863 71.416 40.8103 71.5772 40.6244C72.0235 40.0913 72.3705 39.4839 72.7796 38.9261C73.1515 39.2484 73.5358 39.5831 74.0317 39.6946C74.4036 39.7814 74.6267 39.3104 74.4284 39.0376C74.1804 38.6781 73.7713 38.455 73.387 38.2443C73.9573 37.6988 74.6639 37.2401 75.1101 36.6203C75.2837 36.3724 75.0481 36.0997 74.7878 36.1741Z" fill="#E0855C"/>
<path d="M34.3754 36.1478C34.3754 36.1478 32.6523 29.3174 28.3507 32.3421C24.0492 35.3668 28.3507 45.3583 34.4002 45.2963C34.4002 45.2963 36.0118 38.6023 34.3754 36.1478Z" fill="#F5A784"/>
<path d="M29.8269 35.5276C30.6699 35.7755 31.4632 36.6929 32.0211 37.3499C32.6037 38.0317 33.2855 38.8746 33.5087 39.7672C33.583 40.0399 33.1988 40.1639 33.0376 39.9779C32.5913 39.4449 32.2442 38.8374 31.8351 38.2796C31.4632 38.6019 31.079 38.9366 30.5831 39.0482C30.2112 39.135 29.9881 38.6639 30.1864 38.3912C30.4344 38.0317 30.8434 37.8085 31.2277 37.5978C30.6575 37.0524 29.9509 36.5937 29.5047 35.9739C29.3435 35.726 29.5666 35.4532 29.8269 35.5276Z" fill="#E0855C"/>
<path d="M71.1313 28.2638C67.1025 8.92546 52.264 10.2767 52.264 10.2767C52.264 10.2767 37.4379 8.92546 33.3967 28.2638C31.8967 35.4538 32.3554 42.9783 35.1198 49.784C37.7354 56.2177 42.756 63.1349 52.2516 63.1349C61.7473 63.1349 66.7802 56.2177 69.3959 49.784C72.1851 42.9783 72.6313 35.4538 71.1313 28.2638Z" fill="#F5A784"/>
<path d="M53.3283 43.7848C52.4606 43.698 50.5143 44.3054 50.0557 43.4005C49.6838 42.6443 50.8366 38.0081 50.9978 37.2147C51.568 34.3511 52.2127 32.4049 52.5722 28.9959C52.5846 28.8471 52.3242 28.7728 52.2623 28.9339C50.4896 33.533 50.0309 39.1361 49.0516 43.9831C49.002 44.2435 49.2004 44.5162 49.4855 44.5038C50.7499 44.417 51.9895 44.6277 53.2415 44.5658C53.6878 44.5286 53.7746 43.8344 53.3283 43.7848Z" fill="#E0855C"/>
<path d="M46.1885 49.3257H58.1138C58.1138 49.3257 55.8825 53.5529 52.1511 53.5529C48.4198 53.5529 46.1885 49.3257 46.1885 49.3257Z" fill="white"/>
<path d="M44.0458 35.0583C44.0458 35.0583 42.4095 35.6657 42.6574 32.7773C42.8805 30.1865 44.0458 30.5336 44.0458 30.5336C44.0458 30.5336 45.1738 30.5212 45.0127 32.7897C44.8391 35.0707 44.0458 35.0583 44.0458 35.0583Z" fill="#3B2645"/>
<path d="M59.6034 35.0583C59.6034 35.0583 57.9671 35.6657 58.215 32.7773C58.4382 30.1865 59.6034 30.5336 59.6034 30.5336C59.6034 30.5336 60.7315 30.5212 60.5704 32.7897C60.3968 35.0707 59.6034 35.0583 59.6034 35.0583Z" fill="#3B2645"/>
<path d="M46.2393 26.5526C44.8385 25.8336 42.2228 25.6477 41.1939 27.1104C41.008 27.3708 41.2559 27.7798 41.5658 27.755C42.26 27.7179 42.8798 27.3831 43.574 27.3212C44.3302 27.2592 45.0492 27.4328 45.7682 27.6559C46.4128 27.8666 46.8591 26.8625 46.2393 26.5526Z" fill="#3B2645"/>
<path d="M61.7969 26.5526C60.3961 25.8336 57.7805 25.6477 56.7516 27.1104C56.5656 27.3708 56.8135 27.7798 57.1234 27.755C57.8176 27.7179 58.4374 27.3831 59.1316 27.3212C59.8878 27.2592 60.6068 27.4328 61.3258 27.6559C61.9828 27.8666 62.4167 26.8625 61.7969 26.5526Z" fill="#3B2645"/>
<path d="M41.1321 14.0939C41.1321 14.0939 34.7975 22.3623 32.7273 32.8125L30.8555 29.5274C30.8555 29.5398 33.9297 11.4287 41.1321 14.0939Z" fill="#3B2645"/>
<path d="M40.1153 5.70235C40.1153 5.70235 46.0036 0.0124039 66.7303 2.29334C66.7303 2.29334 71.0815 3.04951 75.1847 0C75.1847 0 79.0896 11.603 68.441 15.0368C57.7801 18.4582 46.6358 17.9128 41.1442 14.0947C35.6401 10.2766 40.1153 5.70235 40.1153 5.70235Z" fill="#3B2645"/>
<path d="M47.7887 37.35H36.9046C35.9749 37.35 35.2188 36.5939 35.2188 35.6641V29.9618C35.2188 29.032 35.9749 28.2759 36.9046 28.2759H47.7887C48.7184 28.2759 49.4746 29.032 49.4746 29.9618V35.6641C49.4746 36.5939 48.7184 37.35 47.7887 37.35ZM36.9046 29.2056C36.4832 29.2056 36.1485 29.5403 36.1485 29.9618V35.6641C36.1485 36.0856 36.4832 36.4203 36.9046 36.4203H47.7887C48.2102 36.4203 48.5449 36.0856 48.5449 35.6641V29.9618C48.5449 29.5403 48.2102 29.2056 47.7887 29.2056H36.9046Z" fill="#DADEEA"/>
<path d="M67.0152 37.35H56.1312C55.2015 37.35 54.4453 36.5939 54.4453 35.6641V29.9618C54.4453 29.032 55.2015 28.2759 56.1312 28.2759H67.0152C67.9449 28.2759 68.7012 29.032 68.7012 29.9618V35.6641C68.7012 36.5939 67.9449 37.35 67.0152 37.35ZM56.1312 29.2056C55.7097 29.2056 55.375 29.5403 55.375 29.9618V35.6641C55.375 36.0856 55.7097 36.4203 56.1312 36.4203H67.0152C67.4367 36.4203 67.7714 36.0856 67.7714 35.6641V29.9618C67.7714 29.5403 67.4367 29.2056 67.0152 29.2056H56.1312Z" fill="#DADEEA"/>
<path d="M54.903 32.3555H48.5312V33.2852H54.903V32.3555Z" fill="#DADEEA"/>
<path d="M75.1719 85.8945V117.084H29.2061L32.5655 85.8945C32.5655 85.8945 41.6397 91.6465 52.2758 91.6465C62.8995 91.6465 75.1719 85.8945 75.1719 85.8945Z" fill="#B8C3E3"/>
<path d="M38.5528 117.084H0C0 117.084 2.12798e-05 86.4154 4.74784 83.3907C8.36759 81.0974 26.6771 74.8 35.2802 71.9116C35.9248 77.7627 38.2429 99.8035 38.5528 117.084Z" fill="#3B2645"/>
<path d="M104.539 117.085H64.833C65.1553 99.4199 67.5602 76.784 68.1428 71.5527C76.1509 74.2304 96.0099 80.9988 99.7785 83.4037C104.539 86.4161 104.539 117.085 104.539 117.085Z" fill="#3B2645"/>
</svg>
