<svg width="17" height="14" viewBox="0 0 17 14" fill="none" xmlns="http://www.w3.org/2000/svg">
<path d="M4.95831 0C4.38211 0 3.84163 0.242582 3.50715 0.651693L0.0839225 4.82921C-0.127471 5.08665 0.0849956 5.44444 0.448021 5.44444H0.47241V13.2222C0.472434 13.4285 0.566415 13.6263 0.733684 13.7722C0.900953 13.918 1.12781 14 1.36436 14H15.6356C15.8722 14 16.099 13.918 16.2663 13.7722C16.4336 13.6263 16.5276 13.4285 16.5276 13.2222V5.44444H16.552C16.915 5.44444 17.1275 5.08665 16.9161 4.82921L13.4929 0.651693C13.1584 0.243359 12.6179 0 12.0417 0H4.95831ZM5.37816 1.63303L7.96692 4.79275C8.3014 5.20186 8.84188 5.44444 9.41809 5.44444H14.7437V12.4444H7.60805V8.55556C7.60805 8.12622 7.20845 7.77778 6.71609 7.77778H4.93218C4.43982 7.77778 4.04023 8.12622 4.04023 8.55556V12.4444H2.25632V5.44444L5.37816 1.63303ZM10.2839 7.77778C9.79155 7.77778 9.39195 8.12622 9.39195 8.55556V10.1111C9.39195 10.5404 9.79155 10.8889 10.2839 10.8889H12.0678C12.5602 10.8889 12.9598 10.5404 12.9598 10.1111V8.55556C12.9598 8.12622 12.5602 7.77778 12.0678 7.77778H10.2839Z" fill="#F9926D"/>
</svg>
