<svg width="14" height="18" viewBox="0 0 14 18" fill="none" xmlns="http://www.w3.org/2000/svg">
<path d="M6.30396 17.1817L0 15.983V0H6.30396L6.62724 9.19023L6.30396 17.1817Z" fill="#F9926D"/>
<path d="M13.2542 15.983L5.89062 17.1817V0H13.2542V15.983Z" fill="#F9926D"/>
<path d="M6.55517 15.7588H0V17.9999H6.55517V15.7588Z" fill="#F9926D"/>
<path d="M3.68223 2.45459H1.47314V5.7273H3.68223V2.45459Z" fill="white"/>
<path d="M3.68223 7.36353H1.47314V10.6362H3.68223V7.36353Z" fill="white"/>
<path d="M13.2542 15.5454H6.62695V17.9999H13.2542V15.5454Z" fill="#F9926D"/>
<path d="M5.15479 2.45459V5.7273H6.96221L7.36387 4.09095L6.96221 2.45459H5.15479Z" fill="white"/>
<path d="M5.15479 7.36353V10.6362H6.96221L7.36387 8.99988L6.96221 7.36353H5.15479Z" fill="white"/>
<path d="M8.09967 2.45459H6.62695V5.7273H8.09967V2.45459Z" fill="white"/>
<path d="M8.09967 7.36353H6.62695V10.6362H8.09967V7.36353Z" fill="white"/>
<path d="M11.7823 2.45459H9.57324V5.7273H11.7823V2.45459Z" fill="white"/>
<path d="M11.7823 7.36353H9.57324V10.6362H11.7823V7.36353Z" fill="white"/>
<path d="M5.04248 12.7708V17.9999H6.55521L6.89137 15.3853L6.55521 12.7708H5.04248Z" fill="white"/>
<path d="M8.06791 12.7708H6.55518V17.9999H8.06791V12.7708Z" fill="white"/>
</svg>
