<svg width="384" height="133" viewBox="0 0 384 133" fill="none" xmlns="http://www.w3.org/2000/svg">
<path d="M93.3719 92.1948C93.5596 92.4547 100.899 89.4516 106.366 83.5322C114.475 74.7589 117.521 60.5956 113.103 48.4006C111.026 42.8024 107.546 37.8312 102.997 33.9629L102.034 34.4441C101.385 35.3056 101.274 36.2922 101.553 36.8504C101.699 37.1911 101.948 37.4773 102.265 37.6686C102.41 37.7359 102.501 37.7456 102.516 37.8129C102.578 38.0776 101.481 38.5878 101.236 38.7033L101.072 38.7754C100.355 39.2567 100.504 41.4464 101.553 42.1442C102.111 42.5196 102.516 42.1972 102.997 42.6255C103.627 43.1886 103.512 44.2329 103.478 44.5505C103.42 45.0991 103.141 46.3552 102.516 46.4755C101.149 46.7498 99.1806 41.3502 98.1844 41.663C97.8091 41.7881 97.9679 42.6255 97.2219 43.1067C96.6059 43.5254 96.1343 43.2078 95.7782 43.588C95.2632 44.1463 95.5231 45.6141 96.2594 45.9943C96.9957 46.3745 97.6502 45.59 98.1844 45.9943C98.5021 46.2349 98.3192 46.5525 98.6657 47.438C98.8274 48.0082 99.1641 48.5132 99.6282 48.8818C100.297 49.3246 100.831 48.9877 101.072 49.3631C101.443 49.9358 100.591 51.2881 100.591 51.2881H97.2219V55.1381C97.5886 55.1828 97.9287 55.3528 98.1844 55.6194C98.5454 56.0381 98.5309 56.5819 98.6657 56.5819C98.8004 56.5819 98.7379 55.9081 99.147 55.6194C99.6282 55.2873 100.591 55.6194 100.591 55.6194C100.943 55.5323 101.272 55.3679 101.553 55.1381C102.006 54.6569 101.264 53.8772 101.553 53.2131C102.111 51.9618 105.885 52.2506 105.885 52.2506C105.885 52.2506 106.467 55.3162 107.81 55.6194C108.262 55.7253 108.43 55.4365 108.772 55.6194C109.417 55.9755 109.094 57.169 109.735 57.5444C109.885 57.6169 110.049 57.6545 110.216 57.6545C110.382 57.6545 110.547 57.6169 110.697 57.5444V55.1381H111.178C111.178 55.1381 111.356 56.0236 111.66 57.5444C112.22 57.7271 112.719 58.06 113.103 58.5069C113.825 59.378 114.196 60.8651 113.585 61.3944C113.06 61.8757 111.814 61.5821 111.178 60.9132C110.615 60.3212 110.697 59.5994 110.216 59.4694C110.025 59.4405 109.831 59.4713 109.658 59.5574C109.486 59.6436 109.344 59.781 109.253 59.9507C109.066 60.3646 109.407 60.7977 109.253 60.9132C109.099 61.0287 108.676 60.6966 108.291 60.4319C107.692 60.0325 107.045 59.7092 106.366 59.4694V56.5819H101.553C101.553 56.5819 101.443 56.8129 101.173 57.3423L101.072 57.5444C100.591 58.1267 98.1844 57.0631 98.1844 57.0631C98.1844 57.0631 95.9995 59.4213 91.9281 63.8007C92.3018 64.8926 92.3018 66.0777 91.9281 67.1695C91.5046 68.3101 90.7298 68.8491 90.9656 69.5758C91.2014 70.3025 92.0725 70.1774 92.4094 71.0196C92.7126 71.7703 92.1736 72.2131 92.4094 72.9446C92.7126 73.9071 93.9446 74.268 94.3344 74.3883C96.7695 75.1535 98.632 73.4258 99.6282 74.3883C100.109 74.8696 99.9651 75.5915 100.591 75.8321C101.216 76.0727 101.664 75.553 102.034 75.8321C102.215 76.0291 102.315 76.2867 102.315 76.554C102.315 76.8213 102.215 77.0788 102.034 77.2759C101.606 77.6128 100.913 76.9967 100.591 77.2759C100.191 77.6272 101.154 78.7196 101.072 80.1634C101.014 81.2559 100.408 82.0403 99.6282 83.0509C98.478 84.5476 98.0353 84.2878 97.2219 85.4572C96.2305 86.901 96.6925 87.5699 95.7782 89.3073C94.7579 91.2756 93.2853 92.0793 93.3719 92.1948Z" fill="#2B3991"/>
<path d="M68.3472 93.6382C68.3472 93.6623 66.9467 93.0703 66.9034 92.1944C66.9142 91.9204 66.9923 91.6533 67.1307 91.4166C67.2692 91.1799 67.4639 90.9809 67.6975 90.8373C67.7841 90.7844 67.8515 90.7603 67.8659 90.7507C68.2846 90.5822 69.3386 89.6197 71.716 86.9006C71.5572 86.4194 71.3984 85.9381 71.2347 85.4569H72.9336C73.0089 85.4622 73.0844 85.4622 73.1597 85.4569C73.8986 85.3858 74.5846 85.0428 75.0848 84.4944L79.3294 78.1322L78.9348 76.7943L73.4389 74.388C72.7844 74.1006 72.2277 73.6292 71.8363 73.031C71.445 72.4329 71.236 71.734 71.2347 71.0192L64.4972 66.6879H64.1699C63.4353 66.6881 62.7084 66.5391 62.0331 66.25L59.6846 65.2441C58.4237 65.5858 57.904 65.7254 57.7596 65.7254C57.62 65.788 57.6681 66.2307 57.7596 66.6879H56.3158V70.538C56.2148 71.2646 56.1089 71.9817 56.0078 72.7084L56.6816 75.4804L59.6846 79.6818C60.1348 79.8277 60.544 80.0782 60.8786 80.4128C61.2132 80.7474 61.4638 81.1566 61.6096 81.6068C61.7733 82.0881 61.9369 82.5693 62.0909 83.0506C62.2813 83.5213 62.442 84.0035 62.5721 84.4944C63.1593 86.6696 62.8465 87.7284 63.0534 88.8257C63.6646 92.0501 68.3761 93.5997 68.3472 93.6382Z" fill="#2B3991"/>
<path d="M55.3494 66.688L53.4244 64.2817C52.5795 63.6955 51.7755 63.0523 51.0181 62.3567C50.4839 61.8754 50.0027 61.3941 49.5744 60.9129C49.1073 61.078 48.5977 61.078 48.1306 60.9129C47.1681 60.5471 46.5569 59.3777 46.6868 58.0254C46.7776 57.2258 46.7776 56.4186 46.6868 55.6191C46.4885 54.0959 45.9983 52.6253 45.2431 51.2878C43.3614 47.226 50.7149 39.2564 52.4619 37.3314C55.8159 33.7045 59.7123 30.6199 64.012 28.1875C64.1756 28.8324 64.3345 29.4725 64.4933 30.1125L65.937 29.15V27.225H68.8246L71.7121 25.3H86.1498C87.7812 25.1123 88.3395 25.4492 88.556 25.7813C89.0662 26.5705 87.9449 27.7881 88.556 28.6688C88.9555 29.2415 89.5956 28.9816 89.9998 29.6313C90.4041 30.281 90.1201 31.1954 89.9998 31.5563C89.8462 32.1302 89.508 32.6376 89.0373 33.0001C88.0748 33.6642 87.2807 32.7883 85.6685 33.0001C84.0563 33.2118 82.2083 34.3861 81.8185 35.8876C81.6693 36.4747 81.7655 37.0426 81.3372 37.3314C81.1591 37.4565 80.957 37.4854 79.8934 37.3314C78.7432 37.1726 78.1609 37.0859 77.9684 36.8501C77.6604 36.4844 77.877 36.1042 77.9684 34.9251C78.1224 32.9279 77.5979 32.7017 77.9684 31.5563C78.2909 30.5938 78.7192 30.5938 78.9309 29.6313C79.0946 28.8661 79.0946 27.6196 78.4497 27.225C77.9155 26.9026 77.4631 27.4849 76.5247 27.225C75.7739 27.0181 75.7932 26.5705 75.0809 26.2625C73.9596 25.7813 72.2222 26.1759 71.7121 27.225C71.6006 27.4493 71.5426 27.6964 71.5426 27.9469C71.5426 28.1974 71.6006 28.4445 71.7121 28.6688C72.073 29.304 72.7179 29.0538 73.1559 29.6313C73.7478 30.4157 73.0163 31.4456 73.6371 32.0376C74.0077 32.3937 74.4504 32.1964 74.5996 32.5188C74.8066 32.9568 74.2724 33.8615 73.6371 33.9626C73.0019 34.0637 72.5736 33.3033 72.1934 33.4813C71.8132 33.6594 72.1645 34.5016 71.7121 34.9251C71.2597 35.3486 69.97 35.185 69.3058 34.4438C69.1207 34.2559 68.9811 34.0281 68.8977 33.7778C68.8142 33.5275 68.7892 33.2615 68.8246 33.0001C69.0171 32.3023 69.7871 32.3793 70.2683 31.5563C70.5667 31.0366 70.7159 30.1703 70.2683 29.6313C69.7005 28.9431 68.3722 29.0634 67.8621 29.6313C67.4819 30.0644 67.8043 30.4735 67.3808 31.0751C66.9573 31.6766 66.5049 31.4793 65.937 32.0376C65.143 32.8316 65.4558 33.8375 64.9745 33.9626C64.4933 34.0877 64.1468 32.8846 63.0495 32.5188C62.5274 32.3676 61.9716 32.3786 61.4559 32.5505C60.9402 32.7224 60.4889 33.047 60.162 33.4813C59.546 34.5016 60.6432 35.2909 60.6432 37.8126C60.6432 39.5163 60.162 40.2478 60.6432 40.7002C61.2207 41.2247 62.6597 40.9456 63.0495 40.2189C63.4393 39.4922 62.6693 38.6933 63.0495 38.2939C63.4297 37.8944 64.3537 38.6789 64.9745 38.2939C65.8745 37.7453 64.7868 35.5748 65.937 34.4438C66.1209 34.253 66.3483 34.1096 66.5998 34.0257C66.8512 33.9419 67.1192 33.9203 67.3808 33.9626C67.607 34.03 67.9054 34.2032 68.8246 35.8876C69.3058 36.8068 69.5753 37.3747 69.7871 37.3314C69.9988 37.2881 69.8785 36.6095 70.2683 36.3689C70.5278 36.2723 70.8125 36.2673 71.0751 36.3549C71.3377 36.4424 71.5625 36.6172 71.7121 36.8501C72.1934 37.7453 70.7496 39.0447 71.2309 39.7377C71.5389 40.1756 72.1934 39.7713 72.6746 40.2189C73.5505 41.0226 72.4773 43.2027 73.1559 43.5877C73.4687 43.7658 73.8248 43.3904 74.1184 43.5877C74.4889 43.838 74.3398 44.7187 74.1184 45.5127H72.1934V44.069H70.7496C71.072 43.1834 70.817 42.7311 70.7496 42.6252C70.2683 41.8648 68.6561 41.6627 66.8996 42.6252C67.0584 43.8572 67.4867 44.3385 67.8621 44.5502C68.5839 44.9593 69.4358 44.5502 69.7871 45.0315C69.8777 45.1756 69.9257 45.3425 69.9257 45.5127C69.9257 45.683 69.8777 45.8498 69.7871 45.994C69.147 46.9565 66.2547 46.0902 65.937 45.994C64.7628 45.6427 64.3585 45.2769 64.012 45.5127C63.3479 45.994 64.2912 47.7457 63.5308 48.4003C63.088 48.7901 62.5057 48.4003 61.6057 48.4003C59.6037 48.4003 57.3274 50.2531 56.7932 52.2503C56.259 54.2475 57.6354 55.8886 56.7932 56.5816C56.5869 56.7424 56.3329 56.8297 56.0713 56.8297C55.8098 56.8297 55.5557 56.7424 55.3494 56.5816C54.7479 55.9704 55.9558 54.5603 55.3494 53.6941C54.897 53.0492 53.7276 53.1502 52.9431 53.2128C52.1587 53.2754 50.6235 53.4101 49.5744 54.6566C48.6119 55.826 48.198 57.7799 49.0931 58.9879C49.6995 59.8108 50.9796 60.3931 51.4994 59.9504C51.8651 59.6424 51.8266 58.8579 51.4994 58.0254H52.9431V59.9504C52.7143 60.2322 52.55 60.5607 52.4619 60.9129C52.3559 61.225 52.3559 61.5633 52.4619 61.8754C52.6977 62.3567 53.487 62.5636 54.3869 62.3567C54.711 63.8004 55.0318 65.2442 55.3494 66.688Z" fill="#2B3991"/>
<path d="M105.882 91.7129C120.911 77.5785 123.823 55.0798 113.582 38.7749C102.08 20.4631 76.5252 14.0239 56.3125 25.781C58.9979 23.4421 67.3814 16.7237 79.894 16.1559C85.8532 15.9071 91.7875 17.061 97.2192 19.5246C95.8139 16.8825 96.2567 13.7207 98.1817 11.8246C100.631 9.41828 104.549 9.97172 106.844 11.8246C109.14 13.6774 110.41 17.4408 108.769 20.0059C107.624 21.8058 105.559 22.2919 104.919 22.4122C108.543 24.6981 118.813 31.84 122.726 45.0312C127.505 61.1292 120.873 79.6479 105.882 91.7129Z" fill="#3CB54C"/>
<path d="M112.616 20.9707C129.629 36.8184 133.893 61.6849 123.685 80.6464C111.875 102.592 83.0094 112.337 58.2344 100.859C73.2929 112.303 93.3109 112.766 109.419 103.666C124.126 95.3641 133.469 80.4972 133.31 63.3212C134.218 64.4305 135.432 65.2496 136.8 65.6772C138.168 66.1048 139.632 66.1223 141.01 65.7275C144.225 64.7216 146.689 61.2277 145.823 58.0274C144.822 54.3361 139.884 52.902 136.679 54.1773C135.501 54.6791 134.497 55.5159 133.791 56.5836C133.696 49.3117 131.689 42.193 127.972 35.942C124.255 29.691 118.959 24.5278 112.616 20.9707Z" fill="#D9DD24"/>
<path d="M92.5957 10.158C63.3539 4.27315 34.0459 20.2403 23.6867 48.7217C13.3275 77.2032 26.9828 109.228 54.8715 122.657C51.3446 121.618 29.3436 114.733 18.5428 91.8784C9.72462 73.2233 14.0404 55.9143 15.3271 51.357C14.9492 51.5214 12.3148 52.6105 9.9729 51.2842C6.93205 49.5639 6.33381 44.8639 8.13343 42.617C10.0292 40.2544 15.1207 39.9488 18.7559 43.6479C20.5897 38.563 26.0533 25.8298 40.8944 16.3064C64.0059 1.48272 89.5247 9.02453 92.5957 10.158Z" fill="#EF4136"/>
<path d="M25.514 54.1758C24.2964 85.3274 47.5411 111.869 77.0083 114.814C104.185 117.538 130.457 99.5726 138.128 71.9822C137.969 75.659 136.804 93.1575 122.246 107.114C107.977 120.82 90.8877 121.494 87.1147 121.552C87.2591 121.696 89.8819 124.372 89.0397 127.808C88.6391 129.357 87.6813 130.705 86.3495 131.593C85.0177 132.481 83.4054 132.847 81.8209 132.62C78.5387 132.081 76.0169 128.871 76.5271 125.883C76.9217 123.597 78.9334 122.317 79.4146 122.033C75.1314 121.85 55.2989 120.531 39.9517 104.226C20.6774 83.7441 24.975 57.1355 25.514 54.1758Z" fill="#F7941F"/>
<path d="M166.706 92.7408L166.541 92.2051C166.541 92.0128 166.664 91.7243 166.912 91.3397L169.343 90.8452L172.763 90.2271C173.038 90.0898 173.23 89.8975 173.34 89.6502C173.505 89.2931 173.587 88.2354 173.587 86.4772C173.587 77.1368 173.532 71.7523 173.423 70.3237C173.313 68.8677 173.065 67.9474 172.681 67.5628C172.296 67.1782 171.307 66.876 169.714 66.6562C168.78 66.5188 168.038 66.3403 167.489 66.1205L167.653 64.8843C170.538 63.703 172.475 62.6865 173.464 61.8349C174.837 60.5986 176.005 58.9778 176.966 56.9724L178.368 57.0136C178.532 58.3872 178.615 61.4365 178.615 66.1617L178.574 66.8622C178.574 67.0271 178.601 67.2881 178.656 67.6452C179.7 65.7496 181.005 64.0052 182.571 62.4118L183.519 61.464C183.903 61.0245 184.274 60.6811 184.631 60.4338C186.554 59.28 187.983 58.7031 188.917 58.7031C190.126 58.7031 191.115 59.1152 191.884 59.9393C192.653 60.736 193.038 61.725 193.038 62.9063C193.038 63.8403 192.763 64.5683 192.213 65.0903C191.472 65.7771 190.62 66.1205 189.659 66.1205C189.219 66.1205 188.354 65.887 187.062 65.42C185.771 64.9529 184.92 64.7194 184.508 64.7194C183.738 64.7194 183.203 64.8431 182.9 65.0903C182.131 65.6947 181.197 66.9309 180.098 68.799C179.247 70.2001 178.821 71.4913 178.821 72.6726L179.027 79.4719L179.109 87.631C179.192 88.5651 179.302 89.1695 179.439 89.4442C179.549 89.6365 179.824 89.87 180.263 90.1447C183.23 90.392 184.988 90.5705 185.538 90.6804C185.922 90.7079 186.211 90.7354 186.403 90.7628C187.584 90.7903 188.409 90.9551 188.876 91.2573C189.123 91.3947 189.246 91.6007 189.246 91.8754C189.246 92.0403 189.137 92.2601 188.917 92.5348L184.343 92.4936L182.612 92.4524L180.098 92.4936H175.895L173.629 92.6172L166.706 92.7408ZM198.97 60.269H202.06L203.42 60.3514L204.492 60.269C207.321 60.269 209.08 60.2965 209.766 60.3514L209.808 61.1344C209.808 65.0079 209.753 68.7578 209.643 72.3841C209.56 74.5269 209.519 75.7494 209.519 76.0516C209.519 80.8867 209.67 83.9086 209.972 85.1173C210.302 86.3261 211.044 87.3014 212.198 88.0431C213.379 88.7574 214.794 89.1145 216.442 89.1145C218.447 89.1145 220.357 88.7024 222.17 87.8783C224.011 87.0266 225.576 85.9965 226.868 84.7877C227.005 83.7438 227.074 82.5899 227.074 81.3262C227.074 77.2329 227.115 74.472 227.197 73.0434C227.225 72.1918 227.238 71.4501 227.238 70.8182C227.238 66.3678 227.019 63.8541 226.579 63.2772C226.14 62.7003 224.464 62.2607 221.552 61.9585C220.59 61.8486 219.89 61.7525 219.45 61.6701C219.23 61.3129 219.121 61.0382 219.121 60.8459L219.244 60.3926C219.958 60.3102 220.659 60.269 221.346 60.269L227.898 60.3514C230.233 60.2965 231.469 60.269 231.607 60.269C231.909 60.269 232.197 60.2827 232.472 60.3102L232.554 63.3184C232.362 67.4941 232.252 72.6588 232.225 78.8125L232.142 82.1504L232.307 87.7547C232.554 88.1942 232.774 88.4552 232.966 88.5376C233.296 88.675 233.969 88.7436 234.986 88.7436H235.356C235.714 88.7436 236.73 88.8261 238.406 88.9909C238.433 89.348 238.447 89.609 238.447 89.7738V90.2271C234.766 91.0238 231.785 91.8205 229.505 92.6172C228.598 92.9194 227.829 93.1392 227.197 93.2765C227.06 92.315 226.991 91.7243 226.991 91.5046V88.1667C226.991 88.0294 226.977 87.6585 226.95 87.0541C226.593 87.3014 226.181 87.6036 225.714 87.9607C223.543 89.6365 221.25 91.0513 218.832 92.2051C217.211 93.0018 215.645 93.4001 214.134 93.4001C211.25 93.4001 208.901 92.3287 207.088 90.1859C205.247 88.0431 204.327 84.3893 204.327 79.2246C204.327 78.9499 204.341 78.4554 204.368 77.7411C204.478 76.4225 204.533 75.5022 204.533 74.9802C204.533 74.7879 204.519 74.1835 204.492 73.1671C204.464 72.7275 204.45 72.3429 204.45 72.0132C204.45 71.766 204.464 71.2166 204.492 70.3649C204.519 69.4858 204.533 68.8677 204.533 68.5106C204.533 68.0435 204.519 67.6315 204.492 67.2743L204.409 65.0903L204.45 63.9365C204.45 63.4969 204.231 63.0986 203.791 62.7415C202.06 62.2744 200.92 62.0135 200.371 61.9585C199.849 61.8761 199.382 61.7525 198.97 61.5876V60.269ZM252.456 51.9038L253.733 51.945L253.898 55.8597L253.816 60.9283C254.338 60.9558 254.668 60.9695 254.805 60.9695C255.519 60.9695 256.879 60.9146 258.884 60.8047C260.176 60.7223 261.412 60.6811 262.593 60.6811C263.143 60.6811 263.967 60.6948 265.066 60.7223C265.121 61.2717 265.148 61.7113 265.148 62.0409C265.148 62.3981 265.066 62.9612 264.901 63.7304H264.2L257.813 63.9365L254.64 64.0189L253.898 64.1013C253.679 64.7881 253.569 65.5848 253.569 66.4914L253.692 72.6726L253.61 83.5514C253.61 86.4085 253.981 88.3041 254.722 89.2381C255.437 90.1997 256.508 90.6804 257.937 90.6804C258.651 90.6804 259.997 90.4606 261.975 90.0211C262.579 89.8837 263.39 89.4304 264.406 88.6612H264.777C265.024 88.6612 265.217 88.7436 265.354 88.9085C265.519 89.0458 265.601 89.2381 265.601 89.4854L265.56 89.7738C264.379 91.065 263.019 92.0128 261.481 92.6172C259.97 93.1941 257.95 93.4826 255.423 93.4826C253.637 93.4826 252.154 93.0705 250.973 92.2463C249.819 91.4222 249.077 90.4469 248.747 89.3206C248.418 88.1942 248.253 85.7355 248.253 81.9443L248.418 72.6726L248.376 68.2221V66.5738C248.376 65.8046 248.349 65.0354 248.294 64.2662L247.594 64.2249L244.214 64.3486L243.885 64.3898C243.583 64.3898 243.349 64.3211 243.184 64.1837C243.047 64.0464 242.978 63.8815 242.978 63.6892C242.978 63.3596 243.074 63.0986 243.267 62.9063C243.486 62.6865 244.118 62.3569 245.162 61.9173C245.877 61.6151 246.701 61.0519 247.635 60.2278C248.596 59.3761 249.407 58.4421 250.066 57.4256C250.396 56.8762 250.863 55.8323 251.467 54.2938C251.907 53.1675 252.236 52.3708 252.456 51.9038ZM300.503 87.0129C300.668 87.37 300.75 87.631 300.75 87.7959C300.75 88.2079 300.42 88.9359 299.761 89.9799C298.909 91.3535 297.962 92.3562 296.918 92.9881C296.258 93.4001 295.352 93.6062 294.198 93.6062C292.22 93.6062 290.737 93.0018 289.748 91.793C289.143 91.0788 288.717 89.8013 288.47 87.9607L283.855 91.1749C282.234 92.109 280.998 92.6996 280.146 92.9469C278.773 93.304 277.124 93.4826 275.201 93.4826C273.8 93.4826 272.687 93.0705 271.863 92.2463C271.067 91.3947 270.668 90.3095 270.668 88.9909C270.668 87.0953 271.822 84.8289 274.13 82.1916C276.465 79.5543 279.624 77.3977 283.608 75.7219C286.41 74.5407 288.127 73.7852 288.759 73.4555C288.814 72.5489 288.841 71.5599 288.841 70.4885C288.841 66.9996 288.346 64.637 287.357 63.4008C286.396 62.1645 285.009 61.5464 283.195 61.5464C281.3 61.5464 279.528 62.2882 277.88 63.7717C276.863 64.7057 276.094 66.4639 275.572 69.0463C275.407 69.7605 275.091 70.5298 274.624 71.3539C273.443 72.1231 272.495 72.5077 271.781 72.5077C271.177 72.5077 270.627 72.3292 270.133 71.972C269.858 71.7797 269.721 71.5599 269.721 71.3127C269.721 70.5984 270.476 68.9913 271.987 66.4914C273.525 63.964 275.448 62.0821 277.756 60.8459C280.091 59.5822 282.124 58.9503 283.855 58.9503C286.217 58.9503 287.976 59.1701 289.129 59.6097C290.283 60.0217 291.3 60.7635 292.179 61.8349C293.058 62.9063 293.594 64.0738 293.786 65.3376C293.896 65.9419 293.951 68.0985 293.951 71.8072L293.827 78.3593L293.868 83.1394C293.868 83.7712 293.855 84.3069 293.827 84.7465C293.8 85.5432 293.786 86.1338 293.786 86.5184C293.786 87.425 294.047 88.153 294.569 88.7024C295.091 89.2519 295.709 89.5266 296.423 89.5266C297.467 89.5266 298.36 89.0046 299.102 87.9607L299.596 87.3014C299.734 87.219 300.036 87.1228 300.503 87.0129ZM288.388 85.8179C288.58 82.3289 288.676 79.8702 288.676 78.4417C288.676 77.6999 288.635 76.6972 288.553 75.4335C286.712 76.0928 284.761 77.0955 282.701 78.4417C280.641 79.7878 279.006 81.34 277.797 83.0982C276.918 84.3619 276.479 85.5569 276.479 86.6832C276.479 87.7547 276.836 88.6475 277.55 89.3618C278.292 90.076 279.212 90.4332 280.311 90.4332C281.163 90.4332 282.193 90.131 283.402 89.5266C284.995 88.7299 286.657 87.4937 288.388 85.8179ZM332.437 42.7144C334.47 44.9122 335.926 47.0825 336.805 49.2253C337.987 52.2472 338.577 55.7499 338.577 59.7333C338.577 64.2387 337.918 68.2496 336.599 71.766C335.281 75.2824 333.674 78.3318 331.778 80.9141C329.91 83.469 327.946 85.5844 325.885 87.2602C323.825 88.9085 321.284 90.4194 318.262 91.793C315.24 93.1666 312.712 93.8534 310.68 93.8534H310.35C310.02 93.6062 309.855 93.304 309.855 92.9469C309.855 92.5348 309.924 92.2601 310.061 92.1227C310.199 91.9853 310.556 91.9029 311.133 91.8754C312.149 91.793 313.866 91.1612 316.284 89.9799C319.58 88.3316 322.094 86.5184 323.825 84.5404C326.764 81.1889 328.948 77.3977 330.377 73.1671C331.833 68.9364 332.561 64.1975 332.561 58.9503C332.561 54.5823 332.066 51.0384 331.077 48.3187C330.088 45.599 328.687 43.6347 326.874 42.426C325.061 41.2172 323.317 40.6128 321.641 40.6128C319.443 40.6128 317.575 41.6567 316.037 43.7446C313.921 46.6566 312.864 50.8598 312.864 56.3542C312.864 60.6948 313.853 64.1151 315.83 66.615C317.232 68.3732 319.155 69.2523 321.6 69.2523C322.479 69.2523 323.111 69.1699 323.495 69.0051L323.825 68.8814C324.1 68.8814 324.347 69.0188 324.567 69.2935C324.896 69.7056 325.061 70.1314 325.061 70.571L324.608 70.9418C324.003 71.2166 323.303 71.4226 322.506 71.5599C321.737 71.6973 320.872 71.766 319.91 71.766C316.531 71.766 313.482 70.2276 310.762 67.1507C308.042 64.0738 306.682 60.2003 306.682 55.5301C306.682 50.75 308.207 46.7665 311.256 43.5798C314.333 40.3656 318.001 38.7585 322.259 38.7585C324.1 38.7585 325.72 39.0194 327.121 39.5414C328.523 40.0634 330.294 41.121 332.437 42.7144ZM374.138 92.5348H355.265C355.237 92.2875 355.224 92.0815 355.224 91.9167C355.224 91.4496 355.32 91.1337 355.512 90.9689C355.704 90.7766 356.309 90.5843 357.325 90.392C358.919 90.0623 360.21 89.664 361.199 89.1969C361.473 88.5925 361.611 88.0294 361.611 87.5074V84.9525C361.611 84.6503 361.652 83.263 361.734 80.7905C361.762 79.8565 361.789 75.8181 361.817 68.6754L361.899 58.9915L361.817 53.3461C361.817 52.5219 361.844 49.9258 361.899 45.5578C355.663 50.0082 352.243 52.2334 351.639 52.2334C351.419 52.2334 351.185 52.1236 350.938 51.9038C350.691 51.6565 350.567 51.423 350.567 51.2032C350.567 50.9285 350.663 50.7088 350.856 50.5439C351.24 50.1868 352.16 49.5961 353.617 48.772C353.836 48.6621 354.784 47.9203 356.46 46.5468C359.125 44.3215 361.075 42.5771 362.311 41.3133C363.548 40.0496 364.303 39.3354 364.578 39.1705C365.127 39.1431 365.553 39.1293 365.855 39.1293C366.57 39.1293 367.009 39.253 367.174 39.5002C367.366 39.72 367.462 40.5579 367.462 42.0139L367.174 78.7301V82.3564C367.174 83.2355 367.16 84.1284 367.133 85.0349C367.105 85.914 367.091 86.5596 367.091 86.9717C367.091 87.9607 367.215 88.6063 367.462 88.9085C367.627 89.1008 368.135 89.348 368.987 89.6502L371.789 90.2271C372.998 90.5293 373.657 90.7354 373.767 90.8452C374.042 91.0925 374.179 91.4771 374.179 91.9991L374.138 92.5348Z" fill="white"/>
</svg>
