<svg width="148" height="51" viewBox="0 0 148 51" fill="none" xmlns="http://www.w3.org/2000/svg">
<path d="M36.013 35.0928C36.0842 35.1914 38.8676 34.0525 40.9411 31.8075C44.0165 28.4801 45.1719 23.1085 43.4964 18.4834C42.7084 16.3603 41.3886 14.4749 39.6634 13.0078L39.2984 13.1903C39.052 13.517 39.01 13.8912 39.1158 14.1029C39.1711 14.2321 39.2656 14.3407 39.386 14.4132C39.4407 14.4388 39.4754 14.4424 39.4809 14.468C39.5046 14.5684 39.0885 14.7618 38.9954 14.8056L38.9333 14.833C38.6614 15.0155 38.718 15.846 39.1158 16.1107C39.3276 16.253 39.4809 16.1307 39.6634 16.2932C39.9025 16.5067 39.8587 16.9028 39.8459 17.0233C39.824 17.2313 39.7182 17.7077 39.4809 17.7534C38.9625 17.8574 38.216 15.8095 37.8382 15.9281C37.6958 15.9756 37.7561 16.2932 37.4732 16.4757C37.2395 16.6345 37.0607 16.514 36.9256 16.6582C36.7303 16.87 36.8289 17.4266 37.1081 17.5708C37.3874 17.715 37.6356 17.4175 37.8382 17.5708C37.9587 17.6621 37.8893 17.7826 38.0207 18.1184C38.0821 18.3346 38.2097 18.5262 38.3858 18.666C38.6395 18.8339 38.8421 18.7061 38.9333 18.8485C39.0739 19.0657 38.7508 19.5786 38.7508 19.5786H37.4732V21.0387C37.6122 21.0557 37.7412 21.1202 37.8382 21.2213C37.9751 21.38 37.9696 21.5863 38.0207 21.5863C38.0718 21.5863 38.0481 21.3308 38.2032 21.2213C38.3858 21.0953 38.7508 21.2213 38.7508 21.2213C38.8845 21.1882 39.0092 21.1259 39.1158 21.0387C39.2874 20.8562 39.0063 20.5605 39.1158 20.3086C39.3276 19.8341 40.7585 19.9436 40.7585 19.9436C40.7585 19.9436 40.9794 21.1063 41.4886 21.2213C41.6602 21.2614 41.7241 21.1519 41.8537 21.2213C42.0982 21.3563 41.976 21.809 42.2187 21.9513C42.2756 21.9788 42.338 21.9931 42.4012 21.9931C42.4644 21.9931 42.5268 21.9788 42.5837 21.9513V21.0387H42.7663C42.7663 21.0387 42.8338 21.3746 42.9488 21.9513C43.1613 22.0206 43.3507 22.1469 43.4964 22.3164C43.7701 22.6467 43.9107 23.2107 43.6789 23.4115C43.4799 23.594 43.0072 23.4827 42.7663 23.229C42.5527 23.0045 42.5837 22.7307 42.4012 22.6814C42.329 22.6705 42.2551 22.6821 42.1898 22.7148C42.1244 22.7475 42.0708 22.7996 42.0362 22.8639C41.965 23.0209 42.0946 23.1852 42.0362 23.229C41.9778 23.2728 41.8172 23.1468 41.6711 23.0465C41.4439 22.895 41.1986 22.7724 40.9411 22.6814V21.5863H39.1158C39.1158 21.5863 39.0739 21.6739 38.9717 21.8747L38.9333 21.9513C38.7508 22.1722 37.8382 21.7688 37.8382 21.7688C37.8382 21.7688 37.0096 22.6632 35.4654 24.3241C35.6071 24.7382 35.6071 25.1877 35.4654 25.6018C35.3048 26.0343 35.011 26.2388 35.1004 26.5144C35.1898 26.79 35.5202 26.7425 35.648 27.0619C35.7629 27.3467 35.5585 27.5146 35.648 27.792C35.7629 28.157 36.2302 28.2939 36.378 28.3396C37.3016 28.6298 38.0079 27.9745 38.3858 28.3396C38.5683 28.5221 38.5135 28.7959 38.7508 28.8871C38.9881 28.9784 39.1578 28.7813 39.2984 28.8871C39.3669 28.9619 39.4049 29.0595 39.4049 29.1609C39.4049 29.2623 39.3669 29.36 39.2984 29.4347C39.1359 29.5625 38.8731 29.3288 38.7508 29.4347C38.5993 29.5679 38.9644 29.9823 38.9333 30.5298C38.9114 30.9441 38.6814 31.2417 38.3858 31.6249C37.9495 32.1926 37.7816 32.094 37.4732 32.5376C37.0972 33.0851 37.2724 33.3388 36.9256 33.9977C36.5387 34.7442 35.9801 35.049 36.013 35.0928Z" fill="#2B3991"/>
<path d="M26.5214 35.6403C26.5214 35.6494 25.9903 35.4249 25.9738 35.0928C25.9779 34.9888 26.0075 34.8875 26.06 34.7977C26.1126 34.708 26.1864 34.6325 26.275 34.578C26.3078 34.558 26.3334 34.5488 26.3389 34.5452C26.4977 34.4813 26.8974 34.1163 27.799 33.085C27.7388 32.9025 27.6786 32.72 27.6165 32.5375H28.2608C28.2894 32.5395 28.318 32.5395 28.3466 32.5375C28.6268 32.5105 28.887 32.3804 29.0767 32.1724L30.6865 29.7595L30.5368 29.2521L28.4525 28.3395C28.2043 28.2305 27.9931 28.0517 27.8447 27.8248C27.6963 27.598 27.617 27.3329 27.6165 27.0618V27.0618L25.0612 25.4191H24.9371C24.6585 25.4192 24.3828 25.3627 24.1267 25.2531L23.236 24.8716C22.7578 25.0012 22.5607 25.0541 22.5059 25.0541C22.453 25.0778 22.4712 25.2457 22.5059 25.4191H21.9584V26.8793C21.92 27.1549 21.8799 27.4269 21.8416 27.7025L22.0971 28.7538L23.236 30.3472C23.4068 30.4025 23.5619 30.4975 23.6889 30.6245C23.8158 30.7514 23.9108 30.9066 23.9661 31.0773C24.0282 31.2598 24.0902 31.4423 24.1486 31.6249C24.2208 31.8034 24.2818 31.9863 24.3311 32.1724C24.5538 32.9974 24.4352 33.399 24.5137 33.8151C24.7455 35.038 26.5323 35.6257 26.5214 35.6403Z" fill="#2B3991"/>
<path d="M21.5918 25.419L20.8617 24.5064C20.5412 24.2841 20.2363 24.0401 19.9491 23.7763C19.7465 23.5938 19.564 23.4113 19.4015 23.2287C19.2244 23.2914 19.0311 23.2914 18.854 23.2287C18.4889 23.09 18.2571 22.6465 18.3064 22.1336C18.3408 21.8304 18.3408 21.5242 18.3064 21.221C18.2312 20.6433 18.0453 20.0856 17.7588 19.5783C17.0452 18.0378 19.8341 15.0153 20.4966 14.2852C21.7687 12.9097 23.2464 11.7398 24.8771 10.8173C24.9392 11.0619 24.9994 11.3047 25.0597 11.5474L25.6072 11.1824V10.4523H26.7024L27.7975 9.72219H33.2731C33.8919 9.65101 34.1036 9.77878 34.1857 9.90472C34.3792 10.204 33.9539 10.6658 34.1857 10.9998C34.3372 11.217 34.58 11.1185 34.7333 11.3649C34.8866 11.6113 34.7789 11.9581 34.7333 12.095C34.675 12.3126 34.5468 12.5051 34.3682 12.6425C34.0032 12.8944 33.702 12.5622 33.0906 12.6425C32.4791 12.7228 31.7783 13.1682 31.6304 13.7377C31.5738 13.9603 31.6103 14.1757 31.4479 14.2852C31.3804 14.3327 31.3037 14.3436 30.9003 14.2852C30.4641 14.225 30.2433 14.1921 30.1703 14.1027C30.0534 13.964 30.1356 13.8198 30.1703 13.3726C30.2287 12.6152 30.0297 12.5294 30.1703 12.095C30.2925 11.7299 30.455 11.7299 30.5353 11.3649C30.5974 11.0747 30.5974 10.6019 30.3528 10.4523C30.1502 10.33 29.9786 10.5508 29.6227 10.4523C29.338 10.3738 29.3453 10.204 29.0751 10.0872C28.6499 9.90472 27.991 10.0544 27.7975 10.4523C27.7552 10.5373 27.7332 10.6311 27.7332 10.7261C27.7332 10.8211 27.7552 10.9148 27.7975 10.9998C27.9344 11.2408 28.179 11.1459 28.345 11.3649C28.5695 11.6624 28.2921 12.053 28.5276 12.2775C28.6681 12.4126 28.836 12.3377 28.8926 12.46C28.9711 12.6261 28.7685 12.9692 28.5276 13.0076C28.2866 13.0459 28.1242 12.7575 27.98 12.8251C27.8358 12.8926 27.9691 13.212 27.7975 13.3726C27.6259 13.5332 27.1368 13.4712 26.8849 13.1901C26.8147 13.1188 26.7617 13.0324 26.7301 12.9375C26.6984 12.8426 26.689 12.7417 26.7024 12.6425C26.7754 12.3779 27.0674 12.4071 27.2499 12.095C27.3631 11.8978 27.4197 11.5693 27.2499 11.3649C27.0345 11.1039 26.5308 11.1495 26.3373 11.3649C26.1931 11.5292 26.3154 11.6843 26.1548 11.9124C25.9942 12.1406 25.8226 12.0658 25.6072 12.2775C25.3061 12.5786 25.4247 12.9601 25.2422 13.0076C25.0597 13.055 24.9283 12.5987 24.5121 12.46C24.3141 12.4026 24.1033 12.4068 23.9077 12.472C23.7121 12.5372 23.541 12.6603 23.417 12.8251C23.1834 13.212 23.5995 13.5113 23.5995 14.4677C23.5995 15.1139 23.417 15.3913 23.5995 15.5629C23.8185 15.7618 24.3643 15.656 24.5121 15.3803C24.6599 15.1047 24.3679 14.8018 24.5121 14.6503C24.6563 14.4988 25.0067 14.7963 25.2422 14.6503C25.5835 14.4422 25.171 13.619 25.6072 13.1901C25.677 13.1177 25.7632 13.0633 25.8586 13.0315C25.9539 12.9997 26.0556 12.9915 26.1548 13.0076C26.2406 13.0331 26.3537 13.0988 26.7024 13.7377C26.8849 14.0863 26.9871 14.3016 27.0674 14.2852C27.1477 14.2688 27.1021 14.0114 27.2499 13.9202C27.3483 13.8835 27.4563 13.8817 27.5559 13.9149C27.6555 13.9481 27.7408 14.0143 27.7975 14.1027C27.98 14.4422 27.4324 14.935 27.615 15.1978C27.7318 15.3639 27.98 15.2106 28.1625 15.3803C28.4947 15.6852 28.0877 16.512 28.345 16.658C28.4637 16.7255 28.5987 16.5832 28.7101 16.658C28.8506 16.7529 28.794 17.0869 28.7101 17.3881H27.98V16.8405H27.4324C27.5547 16.5047 27.458 16.3331 27.4324 16.2929C27.2499 16.0046 26.6385 15.9279 25.9723 16.2929C26.0325 16.7602 26.1949 16.9427 26.3373 17.023C26.6111 17.1782 26.9342 17.023 27.0674 17.2056C27.1017 17.2602 27.12 17.3235 27.12 17.3881C27.12 17.4526 27.1017 17.5159 27.0674 17.5706C26.8246 17.9356 25.7277 17.6071 25.6072 17.5706C25.1619 17.4374 25.0086 17.2986 24.8771 17.3881C24.6253 17.5706 24.983 18.235 24.6946 18.4832C24.5267 18.631 24.3059 18.4832 23.9645 18.4832C23.2053 18.4832 22.3419 19.1859 22.1393 19.9434C21.9367 20.7008 22.4587 21.3232 22.1393 21.5861C22.0611 21.647 21.9647 21.6802 21.8656 21.6802C21.7664 21.6802 21.67 21.647 21.5918 21.5861C21.3636 21.3543 21.8217 20.8195 21.5918 20.4909C21.4202 20.2464 20.9767 20.2847 20.6792 20.3084C20.3817 20.3321 19.7994 20.3832 19.4015 20.856C19.0365 21.2995 18.8795 22.0405 19.219 22.4987C19.449 22.8108 19.9345 23.0316 20.1316 22.8637C20.2703 22.7469 20.2557 22.4494 20.1316 22.1336H20.6792V22.8637C20.5924 22.9706 20.5301 23.0952 20.4966 23.2287C20.4565 23.3471 20.4565 23.4754 20.4966 23.5938C20.5861 23.7763 20.8854 23.8548 21.2267 23.7763C21.3496 24.3239 21.4713 24.8714 21.5918 25.419Z" fill="#2B3991"/>
<path d="M40.7561 34.9097C46.4562 29.5491 47.5605 21.0162 43.6764 14.8324C39.3142 7.88752 29.6223 5.44539 21.9564 9.90437C22.9749 9.01732 26.1544 6.46933 30.8999 6.25396C33.16 6.15961 35.4107 6.59723 37.4707 7.5316C36.9377 6.52956 37.1057 5.3304 37.8357 4.61127C38.7648 3.69866 40.2505 3.90856 41.1211 4.61127C41.9917 5.31397 42.4736 6.74129 41.8512 7.71412C41.4168 8.39675 40.6338 8.5811 40.391 8.62673C41.7654 9.4937 45.6604 12.2023 47.1443 17.2052C48.9567 23.3105 46.4416 30.3339 40.7561 34.9097Z" fill="#3CB54C"/>
<path d="M43.3111 8.07996C49.7632 14.0904 51.3803 23.5212 47.5091 30.7126C43.03 39.0355 32.0824 42.7316 22.6862 38.3784C28.3973 42.7188 35.9893 42.8944 42.0983 39.4429C47.6762 36.2944 51.2197 30.656 51.1595 24.1418C51.5039 24.5625 51.964 24.8732 52.483 25.0353C53.002 25.1975 53.5571 25.2041 54.0798 25.0544C55.2991 24.6729 56.2336 23.3478 55.905 22.1341C55.5254 20.7341 53.6527 20.1902 52.4371 20.6739C51.9905 20.8642 51.6097 21.1816 51.342 21.5865C51.3057 18.8286 50.5446 16.1287 49.1349 13.758C47.7253 11.3872 45.7168 9.42902 43.3111 8.07996Z" fill="#D9DD24"/>
<path d="M35.7177 3.97937C24.6274 1.74747 13.5121 7.80317 9.58325 18.605C5.65442 29.4069 10.8333 41.5526 21.4104 46.6458C20.0728 46.2516 11.7287 43.6407 7.63237 34.9726C4.28799 27.8975 5.92479 21.3329 6.41278 19.6045C6.26948 19.6668 5.27035 20.0799 4.38215 19.5769C3.22888 18.9244 3.00199 17.1419 3.68451 16.2898C4.40349 15.3937 6.33452 15.2778 7.71318 16.6808C8.40867 14.7522 10.4808 9.92303 16.1095 6.31119C24.8747 0.689171 34.553 3.54948 35.7177 3.97937Z" fill="#EF4136"/>
<path d="M10.2757 20.6735C9.81395 32.4881 18.6297 42.5541 29.8055 43.6712C40.1124 44.7042 50.0762 37.8907 52.9856 27.4268C52.9254 28.8213 52.4837 35.4577 46.9624 40.7508C41.5507 45.949 35.0694 46.2046 33.6384 46.2265C33.6932 46.2812 34.6879 47.296 34.3685 48.5992C34.2165 49.1869 33.8533 49.698 33.3482 50.0347C32.8431 50.3715 32.2316 50.5102 31.6307 50.4244C30.3859 50.22 29.4295 49.0026 29.6229 47.8691C29.7726 47.0022 30.5356 46.5167 30.7181 46.409C29.0936 46.3396 21.5719 45.8395 15.7514 39.6557C8.44139 31.8876 10.0713 21.796 10.2757 20.6735Z" fill="#F7941F"/>
<path d="M61.7575 34.0182C61.893 33.9036 62.0701 33.8203 62.2889 33.7682C62.8203 33.6536 63.3256 33.4452 63.8049 33.143C63.8987 32.893 63.9455 32.049 63.9455 30.6112C63.9455 27.9752 63.8882 26.1936 63.7736 25.2663C63.7528 25.0996 63.6694 24.9537 63.5236 24.8287C63.2631 24.6932 62.9088 24.5734 62.4608 24.4692C62.2525 24.4171 62.1274 24.3025 62.0857 24.1254L62.0389 23.5471C62.8099 23.4429 63.5079 23.1825 64.1331 22.7657C64.7582 22.3385 65.2271 21.9061 65.5396 21.4685C65.7064 21.2289 65.8522 21.0466 65.9772 20.9215L67.0712 20.8747C67.1233 21.1143 67.1494 21.3123 67.1494 21.4685C67.1494 21.5832 67.1442 21.7238 67.1338 21.8905C67.1233 22.2552 67.1181 22.5573 67.1181 22.797C67.1181 22.9116 67.1233 23.344 67.1338 24.0941C67.5609 23.3648 67.8735 22.8751 68.0715 22.6251C68.1652 22.5104 68.4413 22.2552 68.8998 21.8593C69.254 21.5988 69.6552 21.4685 70.1032 21.4685C70.6554 21.4685 71.1347 21.6561 71.541 22.0312C71.9473 22.4063 72.1505 22.8386 72.1505 23.3283C72.1505 23.818 71.9942 24.2608 71.6817 24.6568C71.3795 25.0423 70.9732 25.235 70.4626 25.235C70.0146 25.235 69.5458 25.0475 69.0561 24.6724C68.7643 24.4432 68.5299 24.3286 68.3528 24.3286L68.2434 24.3442C68.0246 24.4171 67.8266 24.6151 67.6495 24.9381C67.3578 25.459 67.2119 26.0008 67.2119 26.5634L67.2432 26.9854C67.2848 27.7564 67.3161 29.5641 67.3369 32.4085C67.3682 32.669 67.4672 32.9295 67.6339 33.1899C67.8214 33.3358 68.009 33.44 68.1965 33.5025C68.3945 33.565 68.7331 33.6171 69.2123 33.6588C69.6916 33.7005 69.9834 33.7682 70.0875 33.862C70.1917 33.9453 70.2438 34.086 70.2438 34.2839C70.2438 34.3985 70.2126 34.5496 70.1501 34.7372H68.681L65.6959 34.5809C64.9458 34.5809 64.2633 34.6121 63.6486 34.6746H63.3829C63.31 34.6746 62.7682 34.7007 61.7575 34.7528C61.7263 34.5861 61.7107 34.461 61.7107 34.3777C61.7107 34.2943 61.7263 34.1745 61.7575 34.0182ZM74.5879 22.1249C74.7025 22.0833 74.7963 22.052 74.8692 22.0312H79.5265L79.8704 22.0624L79.886 23.1095L79.8547 24.6411L79.8704 25.4382L79.8547 27.7981V29.4078C79.8547 30.4601 79.912 31.2885 80.0267 31.8928C80.1829 32.3512 80.433 32.7002 80.7768 32.9399C81.1311 33.1691 81.5582 33.2837 82.0584 33.2837C82.5272 33.2837 82.9075 33.2368 83.1992 33.143C83.491 33.0493 83.8244 32.8721 84.1995 32.6117C84.585 32.3512 84.8298 32.1637 84.934 32.049C85.2362 31.7156 85.4445 31.4083 85.5591 31.127L85.6685 27.2355C85.6894 26.8291 85.6998 26.4957 85.6998 26.2352C85.6998 25.9643 85.6894 25.6257 85.6685 25.2194C85.6581 24.8026 85.6529 24.5682 85.6529 24.5161L85.6685 23.9379L85.6373 23.594C85.3872 23.4377 85.0382 23.3388 84.5902 23.2971L83.5431 23.2189C83.4806 23.1877 83.4232 23.1512 83.3712 23.1095C83.3295 22.9012 83.3086 22.7449 83.3086 22.6407C83.3086 22.5157 83.3243 22.3385 83.3555 22.1093C83.6994 22.0572 83.9963 22.0312 84.2463 22.0312L86.6531 22.0624C87.2991 22.0624 88.091 22.052 89.0287 22.0312L89.0599 23.2033L89.013 24.7036L89.0443 26.5791L89.0287 29.2672L88.9974 30.4706L89.013 31.2833C88.9714 31.825 88.9505 32.1324 88.9505 32.2053C88.9505 32.4658 88.9974 32.6586 89.0912 32.7836C89.185 32.9086 89.2735 32.9711 89.3569 32.9711L90.7947 32.9242L90.9822 32.9555C91.0135 33.3202 91.0291 33.5285 91.0291 33.5806C91.0291 33.6536 91.0135 33.7682 90.9822 33.9245C90.43 33.9453 90.0341 33.9818 89.7945 34.0339C88.6796 34.2839 87.4606 34.6538 86.1374 35.1435L85.5123 35.1122L85.4966 32.5648C85.3716 32.669 85.1893 32.8305 84.9496 33.0493C84.0328 33.862 83.2461 34.4142 82.5897 34.7059C81.9333 34.9872 81.2457 35.1279 80.5268 35.1279C79.6724 35.1279 78.9327 34.9507 78.3075 34.5965C77.6824 34.2422 77.2239 33.8046 76.9322 33.2837C76.7134 32.8774 76.5675 32.2939 76.4946 31.5333C76.4738 31.3353 76.4634 30.3143 76.4634 28.4701L76.479 27.97C76.5311 26.9489 76.5571 26.1936 76.5571 25.7039C76.5571 24.8704 76.5415 24.3129 76.5102 24.0316C76.4998 23.8962 76.4477 23.7399 76.354 23.5628C76.2081 23.5003 76.0362 23.4534 75.8382 23.4221C75.1714 23.3075 74.7546 23.1981 74.5879 23.0939C74.5358 23.0627 74.5098 22.9949 74.5098 22.8907C74.5098 22.8282 74.515 22.7449 74.5254 22.6407C74.5463 22.5365 74.5671 22.3646 74.5879 22.1249ZM93.1071 22.9376C94.3365 22.4167 95.2221 21.9061 95.7639 21.406C96.3161 20.9059 96.9048 20.0932 97.53 18.968H98.4052C98.4989 19.2389 98.5458 19.5254 98.5458 19.8276C98.5458 20.3693 98.5406 20.7913 98.5302 21.0935L98.4833 22.0155C98.4833 22.0676 98.4885 22.1875 98.4989 22.375L98.8584 22.3906C98.9105 22.3906 99.4002 22.3698 100.327 22.3281C100.4 22.3281 100.791 22.3177 101.5 22.2969C101.562 22.5782 101.593 22.8282 101.593 23.047C101.593 23.2867 101.557 23.568 101.484 23.891C101.14 23.9326 100.88 23.9535 100.703 23.9535C100.619 23.9535 100.452 23.9431 100.202 23.9222H99.3897L99.1084 23.9066L98.3583 23.9379L98.327 29.9079C98.3166 31.0645 98.3374 31.7886 98.3895 32.0803C98.452 32.3616 98.5771 32.6325 98.7646 32.893C99.0042 33.0076 99.2699 33.0649 99.5617 33.0649C99.843 33.0649 100.051 33.0389 100.187 32.9868C100.322 32.9347 100.551 32.7836 100.874 32.5335C100.937 32.4814 101.036 32.4085 101.171 32.3147C101.421 32.5127 101.625 32.7107 101.781 32.9086L101.843 33.0962C101.479 33.6692 100.963 34.1224 100.296 34.4558C99.6398 34.7788 98.9365 34.9403 98.1864 34.9403C97.2174 34.9403 96.4308 34.633 95.8264 34.0182C95.2221 33.4035 94.92 32.4502 94.92 31.1582L94.9825 28.4076V23.9535L94.498 23.9379L93.3728 23.9535L93.1696 23.9066C93.1071 23.8128 93.0758 23.7243 93.0758 23.6409C93.0758 23.5784 93.0862 23.344 93.1071 22.9376ZM117.284 31.8459L117.643 32.0803C117.737 32.1532 117.794 32.2418 117.815 32.346L117.831 32.4241C117.581 33.3514 117.253 33.9922 116.846 34.3464C116.44 34.6903 115.935 34.8622 115.33 34.8622C114.715 34.8622 114.184 34.6955 113.736 34.3621C113.298 34.0182 112.897 33.4191 112.533 32.5648C112.085 33.3566 111.454 33.9557 110.642 34.3621C109.829 34.758 108.834 34.956 107.657 34.956C106.573 34.956 105.776 34.7319 105.265 34.2839C104.755 33.8255 104.5 33.2264 104.5 32.4866C104.5 32.1428 104.573 31.7938 104.718 31.4395C104.875 31.0853 105.12 30.7363 105.453 30.3924C105.797 30.0382 106.344 29.6527 107.094 29.2359C107.209 29.1734 107.605 28.9963 108.282 28.7045L112.173 27.1417C112.205 26.7458 112.22 26.3446 112.22 25.9383C112.22 24.5317 112.048 23.5732 111.704 23.0627C111.496 22.7501 111.131 22.5938 110.61 22.5938C110.089 22.5938 109.61 22.6928 109.173 22.8907C108.735 23.0887 108.417 23.344 108.219 23.6565C108.073 23.8858 107.948 24.3181 107.844 24.9537C107.771 25.4121 107.703 25.6778 107.641 25.7508C107.485 25.9487 107.198 26.1311 106.781 26.2978C106.375 26.454 106.099 26.5687 105.953 26.6416C105.39 26.9125 104.942 27.0479 104.609 27.0479C104.463 26.9229 104.39 26.7458 104.39 26.5166C104.39 25.9227 104.515 25.4121 104.765 24.985C105.14 24.3807 105.703 23.7972 106.453 23.2346C107.214 22.6615 107.922 22.2604 108.579 22.0312C109.475 21.7394 110.569 21.5936 111.861 21.5936C112.694 21.5936 113.408 21.7499 114.002 22.0624C114.606 22.3646 115.023 22.8178 115.252 23.4221C115.492 24.0264 115.612 25.1152 115.612 26.6885L115.565 29.2672L115.596 31.1582V31.6427C115.596 32.0803 115.653 32.3825 115.768 32.5492C115.893 32.7054 116.049 32.7836 116.237 32.7836C116.351 32.7836 116.45 32.7523 116.534 32.6898L117.002 31.9553L117.284 31.8459ZM112.158 28.2201C111.564 28.418 110.892 28.7514 110.142 29.2203C109.402 29.6787 108.886 30.1424 108.594 30.6112C108.386 30.9551 108.282 31.377 108.282 31.8771C108.282 32.3252 108.417 32.695 108.688 32.9868C108.959 33.2785 109.272 33.4244 109.626 33.4244C110.209 33.4244 110.704 33.2577 111.111 32.9242C111.663 32.4762 111.986 32.122 112.079 31.8615C112.173 31.5906 112.22 30.8352 112.22 29.5954C112.22 29.1369 112.199 28.6785 112.158 28.2201ZM121.643 35.3154C121.477 35.1174 121.393 34.9247 121.393 34.7372C121.393 34.56 121.446 34.4194 121.55 34.3152C121.602 34.2422 121.904 34.1016 122.456 33.8932C123.54 33.4765 124.472 32.9763 125.254 32.3929C126.035 31.799 126.692 31.0853 127.223 30.2518C127.754 29.4078 128.129 28.5014 128.348 27.5324C128.577 26.553 128.702 25.782 128.723 25.2194C128.734 25.0318 128.781 24.5786 128.864 23.8597C128.926 23.3283 128.958 22.6876 128.958 21.9374C128.958 19.2806 128.635 17.4572 127.989 16.4674C127.499 15.7277 126.895 15.3578 126.176 15.3578C125.509 15.3578 124.941 15.6756 124.472 16.3111C123.837 17.1759 123.519 18.4106 123.519 20.0151C123.519 21.0049 123.581 21.9322 123.706 22.797C123.79 23.37 123.977 23.8962 124.269 24.3754C124.457 24.688 124.634 24.8912 124.8 24.985C125.207 25.1829 125.613 25.2819 126.019 25.2819C126.28 25.2819 126.551 25.2402 126.832 25.1569L127.067 25.11C127.192 25.11 127.306 25.1725 127.41 25.2975C127.515 25.4121 127.567 25.5841 127.567 25.8133C127.567 26.2092 127.41 26.4645 127.098 26.5791C126.431 26.8291 125.707 26.9542 124.925 26.9542C124.436 26.9542 124.128 26.9333 124.003 26.8916C123.024 26.5374 122.415 26.2717 122.175 26.0946C121.571 25.657 121.107 25.2142 120.784 24.7662C120.471 24.3077 120.237 23.7868 120.081 23.2033C119.883 22.4323 119.784 21.6561 119.784 20.8747C119.784 19.6348 120.06 18.4887 120.612 17.4364C121.175 16.3737 121.94 15.5766 122.909 15.0452C123.889 14.5139 124.936 14.2482 126.051 14.2482C128.03 14.2482 129.677 15.0036 130.989 16.5143C132.313 18.0251 132.974 20.2078 132.974 23.0627C132.974 24.4692 132.703 25.9696 132.161 27.5637C132.026 27.9596 131.646 28.7045 131.021 29.7985C130.395 30.8821 129.552 31.8719 128.489 32.768C127.426 33.6536 126.306 34.3048 125.129 34.7215C123.951 35.1383 122.988 35.3467 122.237 35.3467C122.102 35.3467 121.904 35.3362 121.643 35.3154ZM140.882 14.2794C140.934 14.2794 141.288 14.269 141.944 14.2482L142.444 14.2638L143.429 14.2794C143.471 14.6128 143.492 14.8577 143.492 15.014C143.492 15.0661 143.486 15.2276 143.476 15.4985C143.465 15.6443 143.455 16.2017 143.445 17.1707L143.413 19.5306L143.429 21.0153L143.32 31.5646V32.4554C143.32 32.768 143.393 32.992 143.538 33.1274C143.684 33.2629 144.075 33.3775 144.711 33.4712C144.961 33.5025 145.461 33.5859 146.211 33.7213C146.232 33.8255 146.242 33.9245 146.242 34.0182C146.242 34.1328 146.232 34.3829 146.211 34.7684H145.539C145.08 34.7684 144.414 34.7476 143.538 34.7059C143.007 34.6746 142.642 34.659 142.444 34.659C142.194 34.659 141.272 34.6851 139.678 34.7372C139.501 34.7476 139.355 34.7528 139.241 34.7528H138.959L138.506 34.7215L138.084 34.7528L137.303 34.7215C137.198 34.7215 136.985 34.7372 136.662 34.7684C136.641 34.5392 136.631 34.3621 136.631 34.237C136.631 34.1224 136.641 33.9505 136.662 33.7213C137.079 33.6067 137.563 33.4921 138.115 33.3775C138.876 33.2212 139.34 33.0701 139.506 32.9242C139.683 32.768 139.772 32.5648 139.772 32.3147L139.756 31.252L139.819 30.0955L139.803 27.72L139.788 27.1104C139.788 27.0271 139.798 26.7145 139.819 26.1727C139.84 25.8914 139.85 25.6414 139.85 25.4226C139.85 25.2871 139.834 24.8651 139.803 24.1567L139.866 23.2658C139.824 22.5886 139.803 22.1875 139.803 22.0624C139.803 21.9061 139.808 21.7499 139.819 21.5936L139.85 21.2029L139.803 20.1401L139.85 19.6556C139.861 19.4368 139.866 19.1451 139.866 18.7804C139.866 18.4262 139.861 17.9938 139.85 17.4833C139.11 18.0355 138.266 18.5877 137.318 19.1399C137.214 19.2024 136.745 19.416 135.912 19.7807C135.578 19.2806 135.365 18.9055 135.271 18.6554C136.375 18.0824 137.126 17.6604 137.521 17.3895C138.178 16.9311 138.886 16.358 139.647 15.6704C139.97 15.3682 140.381 14.9046 140.882 14.2794Z" fill="#222222"/>
</svg>
