<svg width="14" height="14" viewBox="0 0 14 14" fill="none" xmlns="http://www.w3.org/2000/svg">
<rect x="1" y="5" width="7" height="7" stroke="#F9926D" stroke-width="2"/>
<path d="M9.17678 2.17678C9.27441 2.07915 9.27441 1.92085 9.17678 1.82322L7.58579 0.232233C7.48816 0.134602 7.32986 0.134602 7.23223 0.232233C7.1346 0.329864 7.1346 0.488155 7.23223 0.585786L8.64645 2L7.23223 3.41421C7.1346 3.51184 7.1346 3.67014 7.23223 3.76777C7.32986 3.8654 7.48816 3.8654 7.58579 3.76777L9.17678 2.17678ZM0 2.25H9V1.75H0V2.25Z" fill="#F9926D"/>
<path d="M11.6782 4.32322C11.5806 4.22559 11.4223 4.22559 11.3247 4.32322L9.7337 5.91421C9.63607 6.01184 9.63607 6.17014 9.7337 6.26777C9.83133 6.3654 9.98962 6.3654 10.0873 6.26777L11.5015 4.85355L12.9157 6.26777C13.0133 6.3654 13.1716 6.3654 13.2692 6.26777C13.3669 6.17014 13.3669 6.01184 13.2692 5.91421L11.6782 4.32322ZM11.7515 13.5L11.7515 4.5L11.2515 4.5L11.2515 13.5L11.7515 13.5Z" fill="#F9926D"/>
</svg>
